<svg xmlns="http://www.w3.org/2000/svg" xmlns:xlink="http://www.w3.org/1999/xlink" width="500" zoomAndPan="magnify" viewBox="0 0 375 149.999998" height="200" preserveAspectRatio="xMidYMid meet" version="1.0"><defs><g><g id="id1"/><g id="id2"/></g><clipPath id="id3"><path d="M 106.636719 22 L 259 22 L 259 64.464844 L 106.636719 64.464844 Z M 106.636719 22 " clip-rule="nonzero"/></clipPath><clipPath id="id4"><path d="M 172 32 L 268.636719 32 L 268.636719 63 L 172 63 Z M 172 32 " clip-rule="nonzero"/></clipPath></defs><g clip-path="url(#id3)"><path fill="rgb(100%, 100%, 100%)" d="M 106.929688 29.785156 C 106.929688 29.785156 106.957031 29.957031 107.007812 30.292969 C 107.035156 30.460938 107.066406 30.667969 107.113281 30.914062 C 107.15625 31.15625 107.207031 31.4375 107.273438 31.757812 C 107.523438 33.03125 107.960938 34.878906 108.789062 37.09375 C 109.628906 39.300781 110.878906 41.875 112.765625 44.449219 C 113.242188 45.089844 113.746094 45.734375 114.292969 46.375 C 114.839844 47.011719 115.429688 47.640625 116.058594 48.253906 C 117.324219 49.480469 118.730469 50.667969 120.316406 51.714844 C 121.894531 52.769531 123.621094 53.722656 125.488281 54.476562 C 127.351562 55.234375 129.339844 55.832031 131.417969 56.179688 C 132.457031 56.355469 133.515625 56.476562 134.585938 56.539062 C 135.121094 56.574219 135.660156 56.582031 136.203125 56.585938 C 136.476562 56.582031 136.746094 56.578125 137.019531 56.574219 L 137.429688 56.5625 L 137.53125 56.554688 L 137.582031 56.554688 C 137.566406 56.554688 137.6875 56.554688 137.5625 56.554688 L 137.796875 56.539062 C 138.109375 56.519531 138.421875 56.5 138.734375 56.480469 L 139.207031 56.453125 L 139.441406 56.4375 L 139.652344 56.414062 C 140.214844 56.351562 140.757812 56.3125 141.335938 56.238281 C 141.917969 56.15625 142.503906 56.09375 143.089844 55.996094 C 143.671875 55.886719 144.261719 55.8125 144.847656 55.691406 C 149.542969 54.789062 154.261719 53.179688 158.941406 51.035156 C 163.625 48.890625 168.277344 46.253906 172.964844 43.453125 C 177.65625 40.660156 182.390625 37.726562 187.257812 35.019531 C 192.121094 32.300781 197.125 29.824219 202.199219 27.875 C 207.265625 25.914062 212.394531 24.5 217.339844 23.699219 C 219.816406 23.3125 222.238281 23.046875 224.582031 22.925781 C 226.925781 22.796875 229.1875 22.8125 231.351562 22.910156 C 231.886719 22.941406 232.421875 22.972656 232.949219 23.003906 C 233.476562 23.039062 233.996094 23.097656 234.507812 23.140625 C 235.535156 23.222656 236.535156 23.355469 237.503906 23.488281 C 237.988281 23.542969 238.464844 23.628906 238.933594 23.703125 C 239.402344 23.78125 239.867188 23.859375 240.324219 23.933594 C 241.230469 24.101562 242.109375 24.28125 242.957031 24.457031 C 246.34375 25.199219 249.214844 26.089844 251.542969 26.894531 C 252.121094 27.097656 252.667969 27.292969 253.1875 27.476562 C 253.699219 27.667969 254.175781 27.863281 254.617188 28.035156 C 255.0625 28.210938 255.472656 28.375 255.847656 28.523438 C 256.21875 28.679688 256.554688 28.832031 256.855469 28.960938 C 257.457031 29.226562 257.914062 29.4375 258.222656 29.574219 C 258.53125 29.714844 258.691406 29.785156 258.691406 29.785156 C 258.691406 29.785156 258 29.683594 256.703125 29.496094 C 256.058594 29.390625 255.261719 29.285156 254.324219 29.160156 C 253.859375 29.097656 253.355469 29.03125 252.820312 28.957031 C 252.285156 28.894531 251.714844 28.828125 251.113281 28.757812 C 248.714844 28.5 245.808594 28.21875 242.492188 28.109375 C 241.664062 28.09375 240.808594 28.074219 239.929688 28.058594 C 239.492188 28.0625 239.046875 28.0625 238.597656 28.066406 C 238.148438 28.070312 237.691406 28.066406 237.230469 28.085938 C 236.308594 28.128906 235.363281 28.132812 234.402344 28.203125 C 233.921875 28.234375 233.4375 28.253906 232.945312 28.296875 C 232.457031 28.339844 231.960938 28.382812 231.460938 28.429688 C 229.46875 28.632812 227.402344 28.867188 225.296875 29.269531 C 223.1875 29.652344 221.027344 30.109375 218.84375 30.710938 C 214.472656 31.914062 209.992188 33.570312 205.496094 35.667969 C 200.992188 37.757812 196.476562 40.289062 191.894531 43.035156 C 187.316406 45.78125 182.667969 48.757812 177.839844 51.636719 C 173.011719 54.511719 167.960938 57.28125 162.640625 59.511719 C 157.332031 61.746094 151.714844 63.359375 146.132812 64.03125 C 145.4375 64.128906 144.738281 64.179688 144.046875 64.246094 C 143.355469 64.308594 142.660156 64.332031 141.972656 64.378906 C 141.277344 64.410156 140.554688 64.414062 139.851562 64.429688 L 139.589844 64.429688 L 139.355469 64.425781 L 138.882812 64.414062 C 138.566406 64.40625 138.253906 64.398438 137.941406 64.390625 L 137.707031 64.386719 C 137.542969 64.386719 137.625 64.382812 137.570312 64.382812 L 137.371094 64.371094 L 136.847656 64.347656 C 136.496094 64.324219 136.148438 64.296875 135.804688 64.269531 C 135.109375 64.199219 134.425781 64.117188 133.746094 64.007812 C 132.390625 63.796875 131.066406 63.515625 129.785156 63.140625 C 127.230469 62.398438 124.832031 61.40625 122.679688 60.179688 C 120.527344 58.953125 118.585938 57.558594 116.90625 56.03125 C 113.535156 52.984375 111.160156 49.550781 109.613281 46.3125 C 108.050781 43.074219 107.292969 40.046875 106.941406 37.558594 C 106.769531 36.316406 106.691406 35.199219 106.671875 34.234375 C 106.644531 33.269531 106.675781 32.453125 106.722656 31.792969 C 106.742188 31.464844 106.765625 31.171875 106.792969 30.921875 C 106.816406 30.671875 106.84375 30.460938 106.867188 30.296875 C 106.910156 29.957031 106.929688 29.785156 106.929688 29.785156 " fill-opacity="1" fill-rule="nonzero"/></g><path fill="rgb(46.269226%, 95.289612%, 100%)" d="M 114.292969 23.84375 C 114.292969 23.84375 114.339844 24.011719 114.421875 24.328125 C 114.460938 24.488281 114.511719 24.683594 114.5625 24.914062 C 114.589844 25.027344 114.621094 25.152344 114.648438 25.285156 C 114.683594 25.414062 114.722656 25.550781 114.761719 25.695312 C 114.839844 25.980469 114.921875 26.300781 115.011719 26.640625 C 115.125 26.984375 115.226562 27.355469 115.34375 27.746094 C 115.589844 28.527344 115.882812 29.390625 116.238281 30.3125 C 116.417969 30.773438 116.621094 31.246094 116.820312 31.730469 C 116.9375 31.972656 117.046875 32.214844 117.15625 32.460938 C 117.265625 32.710938 117.378906 32.960938 117.511719 33.207031 C 117.640625 33.453125 117.765625 33.707031 117.890625 33.960938 C 118.019531 34.214844 118.167969 34.464844 118.304688 34.71875 C 118.578125 35.230469 118.894531 35.730469 119.199219 36.246094 C 119.539062 36.742188 119.847656 37.265625 120.214844 37.757812 C 120.558594 38.269531 120.949219 38.75 121.324219 39.25 C 122.109375 40.222656 122.949219 41.171875 123.839844 42.074219 C 124.742188 42.964844 125.691406 43.804688 126.667969 44.585938 C 127.164062 44.960938 127.648438 45.347656 128.15625 45.695312 C 128.652344 46.0625 129.175781 46.367188 129.671875 46.710938 C 130.1875 47.011719 130.6875 47.328125 131.199219 47.601562 C 131.457031 47.738281 131.703125 47.886719 131.957031 48.015625 C 132.210938 48.140625 132.464844 48.265625 132.710938 48.394531 C 132.957031 48.527344 133.207031 48.640625 133.457031 48.75 C 133.703125 48.863281 133.949219 48.96875 134.1875 49.085938 C 134.671875 49.285156 135.144531 49.488281 135.605469 49.667969 C 136.527344 50.023438 137.394531 50.316406 138.171875 50.5625 C 138.566406 50.679688 138.933594 50.785156 139.277344 50.894531 C 139.621094 50.984375 139.941406 51.0625 140.230469 51.144531 C 140.808594 51.316406 141.273438 51.398438 141.589844 51.488281 C 141.90625 51.570312 142.078125 51.613281 142.078125 51.613281 C 142.078125 51.613281 141.90625 51.652344 141.585938 51.71875 C 141.421875 51.75 141.222656 51.789062 140.988281 51.832031 C 140.871094 51.851562 140.746094 51.875 140.609375 51.894531 C 140.472656 51.910156 140.328125 51.925781 140.175781 51.945312 C 139.871094 51.980469 139.53125 52.011719 139.160156 52.046875 C 138.789062 52.066406 138.386719 52.070312 137.953125 52.082031 C 137.734375 52.097656 137.515625 52.082031 137.285156 52.074219 C 137.054688 52.066406 136.816406 52.054688 136.574219 52.046875 C 136.332031 52.042969 136.082031 52.015625 135.828125 51.988281 C 135.574219 51.960938 135.3125 51.933594 135.046875 51.902344 C 134.777344 51.882812 134.511719 51.820312 134.234375 51.777344 C 133.957031 51.730469 133.675781 51.679688 133.390625 51.628906 C 133.109375 51.570312 132.820312 51.496094 132.527344 51.425781 C 132.234375 51.359375 131.9375 51.285156 131.644531 51.191406 C 131.34375 51.105469 131.046875 51.011719 130.742188 50.917969 C 130.4375 50.816406 130.136719 50.699219 129.832031 50.589844 C 129.675781 50.53125 129.523438 50.476562 129.367188 50.417969 C 129.214844 50.359375 129.0625 50.285156 128.910156 50.21875 C 128.605469 50.085938 128.296875 49.949219 127.984375 49.808594 C 127.378906 49.503906 126.753906 49.199219 126.152344 48.832031 C 125.855469 48.652344 125.539062 48.484375 125.246094 48.285156 C 124.949219 48.085938 124.652344 47.890625 124.355469 47.691406 C 123.1875 46.855469 122.066406 45.914062 121.023438 44.886719 C 120 43.847656 119.058594 42.722656 118.222656 41.554688 C 118.023438 41.257812 117.828125 40.960938 117.628906 40.664062 C 117.429688 40.371094 117.261719 40.058594 117.082031 39.757812 C 116.714844 39.160156 116.410156 38.535156 116.105469 37.925781 C 115.96875 37.613281 115.832031 37.308594 115.695312 37 C 115.628906 36.847656 115.554688 36.699219 115.496094 36.546875 C 115.441406 36.390625 115.382812 36.234375 115.328125 36.082031 C 115.214844 35.773438 115.097656 35.476562 115 35.171875 C 114.902344 34.867188 114.808594 34.566406 114.722656 34.269531 C 114.628906 33.976562 114.558594 33.675781 114.488281 33.386719 C 114.417969 33.09375 114.347656 32.808594 114.285156 32.523438 C 114.234375 32.238281 114.183594 31.957031 114.136719 31.679688 C 114.09375 31.40625 114.03125 31.140625 114.011719 30.871094 C 113.984375 30.605469 113.953125 30.34375 113.929688 30.089844 C 113.902344 29.832031 113.871094 29.585938 113.867188 29.339844 C 113.859375 29.097656 113.847656 28.863281 113.839844 28.632812 C 113.832031 28.402344 113.820312 28.183594 113.832031 27.964844 C 113.84375 27.53125 113.847656 27.128906 113.867188 26.757812 C 113.902344 26.382812 113.933594 26.042969 113.96875 25.734375 C 113.984375 25.582031 114 25.4375 114.015625 25.300781 C 114.039062 25.167969 114.0625 25.042969 114.082031 24.929688 C 114.121094 24.695312 114.160156 24.496094 114.191406 24.335938 C 114.257812 24.015625 114.292969 23.84375 114.292969 23.84375 " fill-opacity="1" fill-rule="nonzero"/><path fill="rgb(46.269226%, 95.289612%, 100%)" d="M 128.796875 6.011719 C 128.796875 6.011719 128.773438 6.21875 128.730469 6.605469 C 128.707031 6.796875 128.675781 7.035156 128.636719 7.3125 C 128.617188 7.453125 128.597656 7.601562 128.578125 7.761719 C 128.558594 7.917969 128.542969 8.085938 128.527344 8.265625 C 128.488281 8.613281 128.449219 9 128.402344 9.417969 C 128.378906 9.84375 128.335938 10.300781 128.300781 10.78125 C 128.242188 11.75 128.199219 12.835938 128.199219 14.007812 C 128.203125 14.59375 128.226562 15.203125 128.242188 15.828125 C 128.265625 16.140625 128.285156 16.457031 128.300781 16.777344 C 128.320312 17.101562 128.335938 17.425781 128.378906 17.753906 C 128.417969 18.082031 128.449219 18.414062 128.476562 18.75 C 128.515625 19.085938 128.570312 19.425781 128.617188 19.765625 C 128.699219 20.449219 128.839844 21.136719 128.957031 21.839844 C 129.125 22.53125 129.238281 23.242188 129.4375 23.945312 C 129.605469 24.65625 129.832031 25.355469 130.035156 26.070312 C 130.488281 27.480469 131.019531 28.890625 131.621094 30.265625 C 132.242188 31.636719 132.9375 32.96875 133.683594 34.25 C 134.078125 34.875 134.449219 35.515625 134.863281 36.113281 C 135.253906 36.730469 135.707031 37.289062 136.113281 37.878906 C 136.554688 38.433594 136.976562 38.996094 137.425781 39.515625 C 137.648438 39.78125 137.863281 40.046875 138.089844 40.300781 C 138.316406 40.546875 138.546875 40.789062 138.765625 41.039062 C 138.980469 41.289062 139.207031 41.519531 139.4375 41.75 C 139.660156 41.976562 139.886719 42.199219 140.101562 42.429688 C 140.558594 42.859375 140.992188 43.285156 141.429688 43.675781 C 142.296875 44.460938 143.132812 45.15625 143.894531 45.761719 C 144.277344 46.058594 144.640625 46.328125 144.972656 46.597656 C 145.316406 46.84375 145.636719 47.066406 145.921875 47.28125 C 146.492188 47.714844 146.96875 48.003906 147.285156 48.238281 C 147.601562 48.464844 147.769531 48.585938 147.769531 48.585938 C 147.769531 48.585938 147.566406 48.554688 147.179688 48.492188 C 146.988281 48.457031 146.75 48.417969 146.472656 48.363281 C 146.335938 48.335938 146.183594 48.308594 146.023438 48.273438 C 145.867188 48.234375 145.699219 48.1875 145.523438 48.144531 C 145.171875 48.054688 144.78125 47.945312 144.355469 47.820312 C 143.933594 47.6875 143.488281 47.523438 143 47.355469 C 142.757812 47.273438 142.515625 47.164062 142.265625 47.058594 C 142.015625 46.949219 141.757812 46.839844 141.492188 46.726562 C 141.222656 46.617188 140.960938 46.480469 140.691406 46.34375 C 140.417969 46.203125 140.140625 46.0625 139.855469 45.917969 C 139.566406 45.78125 139.300781 45.601562 139.011719 45.433594 C 138.726562 45.265625 138.4375 45.089844 138.140625 44.914062 C 137.851562 44.722656 137.566406 44.523438 137.269531 44.320312 C 136.976562 44.121094 136.675781 43.914062 136.390625 43.6875 C 136.09375 43.464844 135.804688 43.230469 135.507812 42.996094 C 135.214844 42.757812 134.933594 42.5 134.636719 42.246094 C 134.492188 42.117188 134.34375 41.988281 134.199219 41.859375 C 134.050781 41.726562 133.917969 41.585938 133.777344 41.449219 C 133.496094 41.167969 133.210938 40.886719 132.925781 40.597656 C 132.378906 40.003906 131.820312 39.398438 131.3125 38.738281 C 131.054688 38.410156 130.777344 38.09375 130.539062 37.746094 C 130.292969 37.402344 130.050781 37.054688 129.804688 36.707031 C 128.863281 35.285156 128.023438 33.765625 127.304688 32.1875 C 126.613281 30.601562 126.046875 28.957031 125.617188 27.308594 C 125.527344 26.890625 125.433594 26.480469 125.339844 26.066406 C 125.242188 25.65625 125.191406 25.238281 125.117188 24.828125 C 124.964844 24.011719 124.894531 23.1875 124.8125 22.386719 C 124.792969 21.984375 124.773438 21.582031 124.753906 21.1875 C 124.746094 20.988281 124.726562 20.792969 124.726562 20.597656 C 124.730469 20.402344 124.734375 20.207031 124.734375 20.011719 C 124.746094 19.625 124.742188 19.242188 124.757812 18.863281 C 124.78125 18.488281 124.804688 18.113281 124.835938 17.746094 C 124.859375 17.382812 124.90625 17.019531 124.953125 16.667969 C 125 16.3125 125.042969 15.96875 125.09375 15.625 C 125.160156 15.289062 125.226562 14.957031 125.289062 14.628906 C 125.359375 14.304688 125.402344 13.984375 125.496094 13.679688 C 125.578125 13.371094 125.65625 13.070312 125.734375 12.773438 C 125.8125 12.480469 125.886719 12.195312 125.984375 11.921875 C 126.078125 11.652344 126.167969 11.382812 126.257812 11.125 C 126.34375 10.867188 126.425781 10.617188 126.53125 10.382812 C 126.726562 9.90625 126.90625 9.464844 127.082031 9.0625 C 127.277344 8.660156 127.460938 8.292969 127.628906 7.96875 C 127.714844 7.808594 127.792969 7.65625 127.867188 7.511719 C 127.949219 7.375 128.027344 7.242188 128.097656 7.125 C 128.242188 6.882812 128.371094 6.679688 128.472656 6.515625 C 128.683594 6.1875 128.796875 6.011719 128.796875 6.011719 " fill-opacity="1" fill-rule="nonzero"/><g clip-path="url(#id4)"><path fill="rgb(46.269226%, 95.289612%, 100%)" d="M 172.0625 62.414062 C 172.0625 62.414062 172.164062 62.394531 172.359375 62.363281 C 172.550781 62.324219 172.84375 62.285156 173.210938 62.207031 C 173.945312 62.058594 175.011719 61.785156 176.320312 61.328125 C 177.621094 60.863281 179.160156 60.199219 180.863281 59.316406 C 181.714844 58.863281 182.617188 58.390625 183.546875 57.835938 C 184.011719 57.570312 184.488281 57.277344 184.976562 56.992188 C 185.460938 56.691406 185.957031 56.394531 186.460938 56.074219 C 188.480469 54.816406 190.640625 53.386719 192.945312 51.871094 C 195.246094 50.359375 197.6875 48.753906 200.269531 47.152344 C 202.847656 45.535156 205.570312 43.929688 208.410156 42.40625 C 211.253906 40.886719 214.21875 39.4375 217.273438 38.171875 C 220.328125 36.894531 223.472656 35.808594 226.625 34.925781 C 228.210938 34.503906 229.789062 34.105469 231.367188 33.800781 C 231.757812 33.714844 232.152344 33.640625 232.546875 33.574219 C 232.941406 33.503906 233.332031 33.433594 233.722656 33.367188 C 234.113281 33.300781 234.507812 33.246094 234.894531 33.191406 C 235.285156 33.136719 235.671875 33.074219 236.0625 33.03125 C 239.164062 32.640625 242.1875 32.496094 245.039062 32.546875 C 246.46875 32.582031 247.851562 32.652344 249.183594 32.769531 C 250.519531 32.898438 251.800781 33.042969 253.023438 33.238281 C 255.46875 33.625 257.683594 34.105469 259.605469 34.636719 C 260.089844 34.757812 260.550781 34.90625 261 35.039062 C 261.445312 35.171875 261.875 35.296875 262.285156 35.433594 C 263.101562 35.714844 263.851562 35.957031 264.519531 36.210938 C 265.183594 36.464844 265.777344 36.695312 266.289062 36.898438 C 266.804688 37.105469 267.234375 37.304688 267.582031 37.457031 C 268.277344 37.769531 268.644531 37.933594 268.644531 37.933594 C 268.644531 37.933594 268.246094 37.878906 267.488281 37.769531 C 267.113281 37.71875 266.65625 37.640625 266.109375 37.5625 C 265.566406 37.496094 264.941406 37.410156 264.246094 37.3125 C 263.550781 37.230469 262.777344 37.140625 261.9375 37.039062 C 261.097656 36.96875 260.195312 36.855469 259.226562 36.789062 C 258.742188 36.757812 258.246094 36.71875 257.734375 36.675781 C 257.21875 36.640625 256.691406 36.625 256.152344 36.597656 C 255.882812 36.582031 255.609375 36.570312 255.332031 36.558594 C 255.054688 36.550781 254.777344 36.542969 254.492188 36.53125 C 253.925781 36.515625 253.347656 36.496094 252.757812 36.503906 C 251.578125 36.492188 250.347656 36.503906 249.082031 36.554688 C 248.449219 36.597656 247.808594 36.601562 247.15625 36.648438 C 246.832031 36.671875 246.503906 36.695312 246.171875 36.71875 C 245.84375 36.738281 245.511719 36.765625 245.175781 36.800781 C 242.507812 37.03125 239.714844 37.425781 236.859375 37.980469 C 234.003906 38.546875 231.09375 39.304688 228.171875 40.203125 C 225.257812 41.121094 222.328125 42.179688 219.445312 43.390625 C 216.558594 44.585938 213.710938 45.910156 210.925781 47.28125 C 208.136719 48.65625 205.414062 50.089844 202.765625 51.480469 C 200.121094 52.886719 197.550781 54.257812 195.082031 55.53125 C 193.839844 56.160156 192.636719 56.785156 191.449219 57.351562 C 190.261719 57.917969 189.109375 58.46875 187.980469 58.957031 C 185.734375 59.949219 183.605469 60.746094 181.675781 61.332031 C 179.746094 61.914062 178.007812 62.265625 176.570312 62.425781 C 176.390625 62.449219 176.21875 62.472656 176.046875 62.484375 C 175.875 62.496094 175.710938 62.511719 175.550781 62.523438 C 175.390625 62.535156 175.234375 62.542969 175.082031 62.550781 C 174.933594 62.554688 174.785156 62.558594 174.648438 62.558594 C 174.367188 62.558594 174.113281 62.578125 173.871094 62.5625 C 173.632812 62.550781 173.417969 62.542969 173.226562 62.535156 C 173.035156 62.527344 172.867188 62.503906 172.722656 62.488281 C 172.578125 62.472656 172.457031 62.457031 172.359375 62.449219 C 172.164062 62.425781 172.0625 62.414062 172.0625 62.414062 " fill-opacity="1" fill-rule="nonzero"/></g><g fill="rgb(46.269226%, 95.289612%, 100%)" fill-opacity="1"><g transform="translate(64.686783, 133.327377)"><g><path d="M 1.5 -14.109375 L 4.890625 -14.109375 C 7.734375 -14.109375 9.71875 -13.4375 10.84375 -12.09375 C 11.976562 -10.75 12.546875 -9.148438 12.546875 -7.296875 C 12.546875 -6.003906 12.300781 -4.8125 11.8125 -3.71875 C 11.332031 -2.625 10.53125 -1.726562 9.40625 -1.03125 C 8.289062 -0.34375 6.828125 0 5.015625 0 L 1.5 0 Z M 5.234375 -1.90625 C 7.003906 -1.90625 8.285156 -2.40625 9.078125 -3.40625 C 9.878906 -4.40625 10.28125 -5.664062 10.28125 -7.1875 C 10.28125 -8.675781 9.875 -9.882812 9.0625 -10.8125 C 8.257812 -11.75 6.984375 -12.21875 5.234375 -12.21875 L 3.640625 -12.21875 L 3.640625 -1.90625 Z M 5.234375 -1.90625 "/></g></g></g><g fill="rgb(46.269226%, 95.289612%, 100%)" fill-opacity="1"><g transform="translate(82.840037, 133.327377)"><g><path d="M 5.53125 0.1875 C 4.476562 0.1875 3.597656 -0.0195312 2.890625 -0.4375 C 2.191406 -0.851562 1.675781 -1.40625 1.34375 -2.09375 C 1.007812 -2.789062 0.84375 -3.554688 0.84375 -4.390625 C 0.84375 -5.328125 1.035156 -6.144531 1.421875 -6.84375 C 1.816406 -7.550781 2.359375 -8.09375 3.046875 -8.46875 C 3.742188 -8.84375 4.523438 -9.03125 5.390625 -9.03125 C 6.742188 -9.03125 7.75 -8.65625 8.40625 -7.90625 C 9.070312 -7.164062 9.40625 -6.117188 9.40625 -4.765625 C 9.40625 -4.410156 9.382812 -4.050781 9.34375 -3.6875 L 3.015625 -3.6875 C 3.148438 -2.90625 3.425781 -2.34375 3.84375 -2 C 4.257812 -1.65625 4.835938 -1.484375 5.578125 -1.484375 C 6.191406 -1.484375 6.695312 -1.53125 7.09375 -1.625 C 7.488281 -1.726562 7.851562 -1.867188 8.1875 -2.046875 L 8.828125 -0.578125 C 8.503906 -0.367188 8.066406 -0.1875 7.515625 -0.03125 C 6.972656 0.113281 6.3125 0.1875 5.53125 0.1875 Z M 7.390625 -5.125 C 7.398438 -5.914062 7.222656 -6.472656 6.859375 -6.796875 C 6.503906 -7.128906 5.992188 -7.296875 5.328125 -7.296875 C 3.984375 -7.296875 3.210938 -6.570312 3.015625 -5.125 Z M 7.390625 -5.125 "/></g></g></g><g fill="rgb(46.269226%, 95.289612%, 100%)" fill-opacity="1"><g transform="translate(97.999736, 133.327377)"><g><path d="M 5.53125 0.1875 C 4.476562 0.1875 3.597656 -0.0195312 2.890625 -0.4375 C 2.191406 -0.851562 1.675781 -1.40625 1.34375 -2.09375 C 1.007812 -2.789062 0.84375 -3.554688 0.84375 -4.390625 C 0.84375 -5.328125 1.035156 -6.144531 1.421875 -6.84375 C 1.816406 -7.550781 2.359375 -8.09375 3.046875 -8.46875 C 3.742188 -8.84375 4.523438 -9.03125 5.390625 -9.03125 C 6.742188 -9.03125 7.75 -8.65625 8.40625 -7.90625 C 9.070312 -7.164062 9.40625 -6.117188 9.40625 -4.765625 C 9.40625 -4.410156 9.382812 -4.050781 9.34375 -3.6875 L 3.015625 -3.6875 C 3.148438 -2.90625 3.425781 -2.34375 3.84375 -2 C 4.257812 -1.65625 4.835938 -1.484375 5.578125 -1.484375 C 6.191406 -1.484375 6.695312 -1.53125 7.09375 -1.625 C 7.488281 -1.726562 7.851562 -1.867188 8.1875 -2.046875 L 8.828125 -0.578125 C 8.503906 -0.367188 8.066406 -0.1875 7.515625 -0.03125 C 6.972656 0.113281 6.3125 0.1875 5.53125 0.1875 Z M 7.390625 -5.125 C 7.398438 -5.914062 7.222656 -6.472656 6.859375 -6.796875 C 6.503906 -7.128906 5.992188 -7.296875 5.328125 -7.296875 C 3.984375 -7.296875 3.210938 -6.570312 3.015625 -5.125 Z M 7.390625 -5.125 "/></g></g></g><g fill="rgb(46.269226%, 95.289612%, 100%)" fill-opacity="1"><g transform="translate(113.159435, 133.327377)"><g><path d="M 1.40625 -8.8125 L 3.390625 -8.8125 L 3.390625 -7.171875 C 4.097656 -8.410156 5.203125 -9.03125 6.703125 -9.03125 C 7.941406 -9.03125 8.941406 -8.632812 9.703125 -7.84375 C 10.472656 -7.0625 10.859375 -5.929688 10.859375 -4.453125 C 10.859375 -3.523438 10.671875 -2.707031 10.296875 -2 C 9.921875 -1.300781 9.410156 -0.757812 8.765625 -0.375 C 8.117188 0 7.394531 0.1875 6.59375 0.1875 C 5.851562 0.1875 5.210938 0.0546875 4.671875 -0.203125 C 4.128906 -0.460938 3.703125 -0.835938 3.390625 -1.328125 L 3.421875 4.65625 L 1.40625 4.65625 Z M 6.125 -1.546875 C 6.957031 -1.546875 7.597656 -1.8125 8.046875 -2.34375 C 8.492188 -2.875 8.71875 -3.554688 8.71875 -4.390625 C 8.71875 -5.265625 8.492188 -5.957031 8.046875 -6.46875 C 7.609375 -6.988281 6.96875 -7.25 6.125 -7.25 C 5.664062 -7.25 5.234375 -7.132812 4.828125 -6.90625 C 4.421875 -6.6875 4.097656 -6.367188 3.859375 -5.953125 C 3.628906 -5.535156 3.515625 -5.054688 3.515625 -4.515625 L 3.515625 -4.375 C 3.515625 -3.820312 3.628906 -3.332031 3.859375 -2.90625 C 4.097656 -2.476562 4.414062 -2.144531 4.8125 -1.90625 C 5.207031 -1.664062 5.644531 -1.546875 6.125 -1.546875 Z M 6.125 -1.546875 "/></g></g></g><g fill="rgb(46.269226%, 95.289612%, 100%)" fill-opacity="1"><g transform="translate(129.815911, 133.327377)"><g/></g></g><g fill="rgb(46.269226%, 95.289612%, 100%)" fill-opacity="1"><g transform="translate(139.468237, 133.327377)"><g><path d="M 7.90625 0.140625 C 6.445312 0.140625 5.179688 -0.1875 4.109375 -0.84375 C 3.046875 -1.5 2.234375 -2.375 1.671875 -3.46875 C 1.109375 -4.5625 0.828125 -5.765625 0.828125 -7.078125 C 0.828125 -8.472656 1.128906 -9.71875 1.734375 -10.8125 C 2.335938 -11.914062 3.191406 -12.773438 4.296875 -13.390625 C 5.398438 -14.015625 6.648438 -14.328125 8.046875 -14.328125 C 8.671875 -14.328125 9.253906 -14.257812 9.796875 -14.125 C 10.335938 -14 10.785156 -13.847656 11.140625 -13.671875 C 11.503906 -13.492188 11.742188 -13.347656 11.859375 -13.234375 L 10.921875 -11.328125 C 10.140625 -12.015625 9.117188 -12.359375 7.859375 -12.359375 C 6.984375 -12.359375 6.1875 -12.140625 5.46875 -11.703125 C 4.75 -11.265625 4.1875 -10.644531 3.78125 -9.84375 C 3.375 -9.039062 3.171875 -8.109375 3.171875 -7.046875 C 3.171875 -6.066406 3.351562 -5.179688 3.71875 -4.390625 C 4.082031 -3.597656 4.613281 -2.972656 5.3125 -2.515625 C 6.019531 -2.054688 6.859375 -1.828125 7.828125 -1.828125 C 8.953125 -1.828125 10.039062 -2.144531 11.09375 -2.78125 L 11.71875 -0.953125 C 11.4375 -0.703125 10.921875 -0.457031 10.171875 -0.21875 C 9.429688 0.0195312 8.675781 0.140625 7.90625 0.140625 Z M 7.90625 0.140625 "/></g></g></g><g fill="rgb(46.269226%, 95.289612%, 100%)" fill-opacity="1"><g transform="translate(156.873102, 133.327377)"><g><path d="M 1.3125 -8.8125 L 3.375 -8.8125 L 3.375 -7.078125 C 3.582031 -7.671875 3.914062 -8.144531 4.375 -8.5 C 4.832031 -8.851562 5.359375 -9.03125 5.953125 -9.03125 C 6.359375 -9.03125 6.640625 -8.992188 6.796875 -8.921875 L 6.5 -6.828125 C 6.382812 -6.910156 6.132812 -6.953125 5.75 -6.953125 C 5.15625 -6.953125 4.609375 -6.757812 4.109375 -6.375 C 3.617188 -5.988281 3.375 -5.375 3.375 -4.53125 L 3.375 0 L 1.3125 0 Z M 1.3125 -8.8125 "/></g></g></g><g fill="rgb(46.269226%, 95.289612%, 100%)" fill-opacity="1"><g transform="translate(168.713022, 133.327377)"><g><path d="M 3.890625 0.265625 L 0.25 -8.8125 L 2.59375 -8.8125 L 4.46875 -3.203125 L 4.890625 -1.84375 L 5.3125 -3.203125 L 7.296875 -8.8125 L 9.5625 -8.8125 L 4.140625 4.828125 L 2 4.828125 Z M 3.890625 0.265625 "/></g></g></g><g fill="rgb(46.269226%, 95.289612%, 100%)" fill-opacity="1"><g transform="translate(183.201095, 133.327377)"><g><path d="M 1.40625 -8.8125 L 3.390625 -8.8125 L 3.390625 -7.171875 C 4.097656 -8.410156 5.203125 -9.03125 6.703125 -9.03125 C 7.941406 -9.03125 8.941406 -8.632812 9.703125 -7.84375 C 10.472656 -7.0625 10.859375 -5.929688 10.859375 -4.453125 C 10.859375 -3.523438 10.671875 -2.707031 10.296875 -2 C 9.921875 -1.300781 9.410156 -0.757812 8.765625 -0.375 C 8.117188 0 7.394531 0.1875 6.59375 0.1875 C 5.851562 0.1875 5.210938 0.0546875 4.671875 -0.203125 C 4.128906 -0.460938 3.703125 -0.835938 3.390625 -1.328125 L 3.421875 4.65625 L 1.40625 4.65625 Z M 6.125 -1.546875 C 6.957031 -1.546875 7.597656 -1.8125 8.046875 -2.34375 C 8.492188 -2.875 8.71875 -3.554688 8.71875 -4.390625 C 8.71875 -5.265625 8.492188 -5.957031 8.046875 -6.46875 C 7.609375 -6.988281 6.96875 -7.25 6.125 -7.25 C 5.664062 -7.25 5.234375 -7.132812 4.828125 -6.90625 C 4.421875 -6.6875 4.097656 -6.367188 3.859375 -5.953125 C 3.628906 -5.535156 3.515625 -5.054688 3.515625 -4.515625 L 3.515625 -4.375 C 3.515625 -3.820312 3.628906 -3.332031 3.859375 -2.90625 C 4.097656 -2.476562 4.414062 -2.144531 4.8125 -1.90625 C 5.207031 -1.664062 5.644531 -1.546875 6.125 -1.546875 Z M 6.125 -1.546875 "/></g></g></g><g fill="rgb(46.269226%, 95.289612%, 100%)" fill-opacity="1"><g transform="translate(199.857576, 133.327377)"><g><path d="M 2.125 -7.125 L 0.578125 -7.125 L 0.578125 -8.8125 L 2.125 -8.8125 L 2.125 -12.390625 L 4.21875 -12.859375 L 4.21875 -8.8125 L 6.25 -8.8125 L 6.25 -7.125 L 4.21875 -7.125 L 4.21875 0 L 2.125 0 Z M 2.125 -7.125 "/></g></g></g><g fill="rgb(46.269226%, 95.289612%, 100%)" fill-opacity="1"><g transform="translate(211.390473, 133.327377)"><g><path d="M 5.46875 0.1875 C 4.5625 0.1875 3.753906 -0.015625 3.046875 -0.421875 C 2.347656 -0.828125 1.804688 -1.378906 1.421875 -2.078125 C 1.035156 -2.785156 0.84375 -3.570312 0.84375 -4.4375 C 0.84375 -5.28125 1.03125 -6.050781 1.40625 -6.75 C 1.78125 -7.457031 2.320312 -8.015625 3.03125 -8.421875 C 3.738281 -8.828125 4.550781 -9.03125 5.46875 -9.03125 C 6.382812 -9.03125 7.191406 -8.828125 7.890625 -8.421875 C 8.585938 -8.015625 9.125 -7.457031 9.5 -6.75 C 9.882812 -6.050781 10.078125 -5.28125 10.078125 -4.4375 C 10.078125 -3.570312 9.882812 -2.785156 9.5 -2.078125 C 9.113281 -1.378906 8.570312 -0.828125 7.875 -0.421875 C 7.175781 -0.015625 6.375 0.1875 5.46875 0.1875 Z M 5.53125 -1.5 C 6.269531 -1.5 6.851562 -1.769531 7.28125 -2.3125 C 7.707031 -2.863281 7.921875 -3.554688 7.921875 -4.390625 C 7.921875 -5.222656 7.691406 -5.921875 7.234375 -6.484375 C 6.773438 -7.054688 6.164062 -7.34375 5.40625 -7.34375 C 4.675781 -7.34375 4.09375 -7.0625 3.65625 -6.5 C 3.21875 -5.9375 3 -5.234375 3 -4.390625 C 3 -3.578125 3.234375 -2.890625 3.703125 -2.328125 C 4.171875 -1.773438 4.78125 -1.5 5.53125 -1.5 Z M 5.53125 -1.5 "/></g></g></g><g fill="rgb(46.269226%, 95.289612%, 100%)" fill-opacity="1"><g transform="translate(227.260187, 133.327377)"><g/></g></g><g fill="rgb(46.269226%, 95.289612%, 100%)" fill-opacity="1"><g transform="translate(236.912518, 133.327377)"><g><path d="M 13.359375 -5.03125 L 16.734375 -14.109375 L 19.015625 -14.109375 L 13.53125 0 L 13.265625 0 L 9.421875 -9.140625 L 5.609375 -0.015625 L 5.328125 -0.015625 L -0.15625 -14.109375 L 2.125 -14.109375 L 5.5 -5.03125 L 9.375 -14.171875 L 9.5 -14.171875 Z M 13.359375 -5.03125 "/></g></g></g><g fill="rgb(46.269226%, 95.289612%, 100%)" fill-opacity="1"><g transform="translate(260.726664, 133.327377)"><g><path d="M 5.46875 0.1875 C 4.5625 0.1875 3.753906 -0.015625 3.046875 -0.421875 C 2.347656 -0.828125 1.804688 -1.378906 1.421875 -2.078125 C 1.035156 -2.785156 0.84375 -3.570312 0.84375 -4.4375 C 0.84375 -5.28125 1.03125 -6.050781 1.40625 -6.75 C 1.78125 -7.457031 2.320312 -8.015625 3.03125 -8.421875 C 3.738281 -8.828125 4.550781 -9.03125 5.46875 -9.03125 C 6.382812 -9.03125 7.191406 -8.828125 7.890625 -8.421875 C 8.585938 -8.015625 9.125 -7.457031 9.5 -6.75 C 9.882812 -6.050781 10.078125 -5.28125 10.078125 -4.4375 C 10.078125 -3.570312 9.882812 -2.785156 9.5 -2.078125 C 9.113281 -1.378906 8.570312 -0.828125 7.875 -0.421875 C 7.175781 -0.015625 6.375 0.1875 5.46875 0.1875 Z M 5.53125 -1.5 C 6.269531 -1.5 6.851562 -1.769531 7.28125 -2.3125 C 7.707031 -2.863281 7.921875 -3.554688 7.921875 -4.390625 C 7.921875 -5.222656 7.691406 -5.921875 7.234375 -6.484375 C 6.773438 -7.054688 6.164062 -7.34375 5.40625 -7.34375 C 4.675781 -7.34375 4.09375 -7.0625 3.65625 -6.5 C 3.21875 -5.9375 3 -5.234375 3 -4.390625 C 3 -3.578125 3.234375 -2.890625 3.703125 -2.328125 C 4.171875 -1.773438 4.78125 -1.5 5.53125 -1.5 Z M 5.53125 -1.5 "/></g></g></g><g fill="rgb(46.269226%, 95.289612%, 100%)" fill-opacity="1"><g transform="translate(276.596377, 133.327377)"><g><path d="M 1.3125 -8.8125 L 3.375 -8.8125 L 3.375 -7.078125 C 3.582031 -7.671875 3.914062 -8.144531 4.375 -8.5 C 4.832031 -8.851562 5.359375 -9.03125 5.953125 -9.03125 C 6.359375 -9.03125 6.640625 -8.992188 6.796875 -8.921875 L 6.5 -6.828125 C 6.382812 -6.910156 6.132812 -6.953125 5.75 -6.953125 C 5.15625 -6.953125 4.609375 -6.757812 4.109375 -6.375 C 3.617188 -5.988281 3.375 -5.375 3.375 -4.53125 L 3.375 0 L 1.3125 0 Z M 1.3125 -8.8125 "/></g></g></g><g fill="rgb(46.269226%, 95.289612%, 100%)" fill-opacity="1"><g transform="translate(288.436306, 133.327377)"><g><path d="M 1.53125 -14.109375 L 3.59375 -14.109375 L 3.59375 0 L 1.53125 0 Z M 1.53125 -14.109375 "/></g></g></g><g fill="rgb(46.269226%, 95.289612%, 100%)" fill-opacity="1"><g transform="translate(298.529994, 133.327377)"><g><path d="M 5.25 0.1875 C 4.457031 0.1875 3.722656 0 3.046875 -0.375 C 2.378906 -0.75 1.84375 -1.285156 1.4375 -1.984375 C 1.039062 -2.679688 0.84375 -3.5 0.84375 -4.4375 C 0.84375 -5.832031 1.234375 -6.945312 2.015625 -7.78125 C 2.796875 -8.613281 3.851562 -9.03125 5.1875 -9.03125 C 5.925781 -9.03125 6.601562 -8.847656 7.21875 -8.484375 C 7.832031 -8.117188 8.25 -7.679688 8.46875 -7.171875 L 8.359375 -8.671875 L 8.359375 -14.109375 L 10.40625 -14.109375 L 10.40625 0 L 8.421875 0 L 8.390625 -1.546875 C 8.171875 -1.085938 7.769531 -0.679688 7.1875 -0.328125 C 6.613281 0.015625 5.96875 0.1875 5.25 0.1875 Z M 5.609375 -1.546875 C 6.335938 -1.546875 6.945312 -1.796875 7.4375 -2.296875 C 7.9375 -2.804688 8.1875 -3.472656 8.1875 -4.296875 L 8.1875 -4.4375 C 8.1875 -4.976562 8.070312 -5.46875 7.84375 -5.90625 C 7.613281 -6.34375 7.300781 -6.679688 6.90625 -6.921875 C 6.507812 -7.171875 6.078125 -7.296875 5.609375 -7.296875 C 4.785156 -7.296875 4.148438 -7.03125 3.703125 -6.5 C 3.253906 -5.96875 3.03125 -5.28125 3.03125 -4.4375 C 3.03125 -3.570312 3.25 -2.875 3.6875 -2.34375 C 4.132812 -1.8125 4.773438 -1.546875 5.609375 -1.546875 Z M 5.609375 -1.546875 "/></g></g></g><g fill="rgb(100%, 100%, 100%)" fill-opacity="1"><g transform="translate(15.008206, 106.728992)"><g><path d="M 18.859375 -31.734375 C 24.234375 -31.734375 28.382812 -30.359375 31.3125 -27.609375 C 34.25 -24.859375 35.71875 -20.851562 35.71875 -15.59375 C 35.71875 -10.332031 34.25 -6.328125 31.3125 -3.578125 C 28.382812 -0.828125 24.234375 0.546875 18.859375 0.546875 C 13.472656 0.546875 9.320312 -0.816406 6.40625 -3.546875 C 3.5 -6.285156 2.046875 -10.300781 2.046875 -15.59375 C 2.046875 -20.882812 3.5 -24.894531 6.40625 -27.625 C 9.320312 -30.363281 13.472656 -31.734375 18.859375 -31.734375 Z M 18.859375 -24.25 C 16.710938 -24.25 15.078125 -23.597656 13.953125 -22.296875 C 12.835938 -21.003906 12.28125 -19.253906 12.28125 -17.046875 L 12.28125 -14.140625 C 12.28125 -11.929688 12.835938 -10.175781 13.953125 -8.875 C 15.078125 -7.582031 16.710938 -6.9375 18.859375 -6.9375 C 21.003906 -6.9375 22.640625 -7.582031 23.765625 -8.875 C 24.898438 -10.175781 25.46875 -11.929688 25.46875 -14.140625 L 25.46875 -17.046875 C 25.46875 -19.253906 24.898438 -21.003906 23.765625 -22.296875 C 22.640625 -23.597656 21.003906 -24.25 18.859375 -24.25 Z M 18.859375 -24.25 "/></g></g></g><g fill="rgb(100%, 100%, 100%)" fill-opacity="1"><g transform="translate(52.765526, 106.728992)"><g><path d="M 15.09375 -24.484375 C 19.019531 -24.484375 22.195312 -23.644531 24.625 -21.96875 C 27.0625 -20.289062 28.28125 -17.726562 28.28125 -14.28125 L 19.53125 -14.28125 C 19.53125 -17 18.050781 -18.359375 15.09375 -18.359375 C 12.132812 -18.359375 10.65625 -16.648438 10.65625 -13.234375 L 10.65625 -10.65625 C 10.65625 -7.269531 12.195312 -5.578125 15.28125 -5.578125 C 18.363281 -5.578125 19.90625 -6.96875 19.90625 -9.75 L 28.28125 -9.75 C 28.28125 -6.269531 27.0625 -3.679688 24.625 -1.984375 C 22.195312 -0.296875 19.019531 0.546875 15.09375 0.546875 C 10.894531 0.546875 7.597656 -0.507812 5.203125 -2.625 C 2.816406 -4.738281 1.625 -7.851562 1.625 -11.96875 C 1.625 -16.070312 2.816406 -19.179688 5.203125 -21.296875 C 7.597656 -23.421875 10.894531 -24.484375 15.09375 -24.484375 Z M 15.09375 -24.484375 "/></g></g></g><g fill="rgb(100%, 100%, 100%)" fill-opacity="1"><g transform="translate(82.998581, 106.728992)"><g><path d="M 15.09375 -24.484375 C 19.476562 -24.484375 22.828125 -23.453125 25.140625 -21.390625 C 27.453125 -19.335938 28.609375 -16.195312 28.609375 -11.96875 L 28.609375 -10.421875 L 10.65625 -10.421875 C 10.65625 -8.703125 11.039062 -7.40625 11.8125 -6.53125 C 12.582031 -5.65625 13.796875 -5.21875 15.453125 -5.21875 C 16.960938 -5.21875 18.070312 -5.53125 18.78125 -6.15625 C 19.5 -6.789062 19.859375 -7.640625 19.859375 -8.703125 L 28.609375 -8.703125 C 28.609375 -5.796875 27.503906 -3.523438 25.296875 -1.890625 C 23.085938 -0.265625 19.867188 0.546875 15.640625 0.546875 C 11.191406 0.546875 7.742188 -0.488281 5.296875 -2.5625 C 2.847656 -4.632812 1.625 -7.769531 1.625 -11.96875 C 1.625 -16.070312 2.816406 -19.179688 5.203125 -21.296875 C 7.597656 -23.421875 10.894531 -24.484375 15.09375 -24.484375 Z M 15.453125 -18.71875 C 12.617188 -18.71875 11.035156 -17.375 10.703125 -14.6875 L 19.484375 -14.6875 C 19.484375 -15.925781 19.128906 -16.90625 18.421875 -17.625 C 17.710938 -18.351562 16.722656 -18.71875 15.453125 -18.71875 Z M 15.453125 -18.71875 "/></g></g></g><g fill="rgb(100%, 100%, 100%)" fill-opacity="1"><g transform="translate(113.231631, 106.728992)"><g><path d="M 14.546875 -24.484375 C 18.203125 -24.484375 21.175781 -23.867188 23.46875 -22.640625 C 25.769531 -21.421875 26.921875 -19.4375 26.921875 -16.6875 L 26.921875 -7.34375 C 26.921875 -6.832031 27.039062 -6.410156 27.28125 -6.078125 C 27.53125 -5.742188 27.894531 -5.578125 28.375 -5.578125 L 30 -5.578125 L 30 -0.359375 C 29.914062 -0.296875 29.679688 -0.195312 29.296875 -0.0625 C 28.921875 0.0703125 28.382812 0.207031 27.6875 0.34375 C 27 0.476562 26.203125 0.546875 25.296875 0.546875 C 23.546875 0.546875 22.101562 0.28125 20.96875 -0.25 C 19.832031 -0.78125 19.050781 -1.515625 18.625 -2.453125 C 17.476562 -1.546875 16.191406 -0.816406 14.765625 -0.265625 C 13.347656 0.273438 11.691406 0.546875 9.796875 0.546875 C 4.171875 0.546875 1.359375 -1.691406 1.359375 -6.171875 C 1.359375 -8.492188 1.984375 -10.265625 3.234375 -11.484375 C 4.492188 -12.710938 6.300781 -13.550781 8.65625 -14 C 11.007812 -14.457031 14.09375 -14.6875 17.90625 -14.6875 L 17.90625 -15.859375 C 17.90625 -16.796875 17.578125 -17.503906 16.921875 -17.984375 C 16.273438 -18.472656 15.441406 -18.71875 14.421875 -18.71875 C 13.484375 -18.71875 12.671875 -18.550781 11.984375 -18.21875 C 11.304688 -17.882812 10.96875 -17.359375 10.96875 -16.640625 L 10.96875 -16.453125 L 2.078125 -16.453125 C 2.054688 -16.609375 2.046875 -16.820312 2.046875 -17.09375 C 2.046875 -19.351562 3.125 -21.148438 5.28125 -22.484375 C 7.4375 -23.816406 10.523438 -24.484375 14.546875 -24.484375 Z M 17.90625 -10.421875 C 15.332031 -10.421875 13.429688 -10.140625 12.203125 -9.578125 C 10.984375 -9.023438 10.375 -8.28125 10.375 -7.34375 C 10.375 -5.832031 11.40625 -5.078125 13.46875 -5.078125 C 14.644531 -5.078125 15.675781 -5.394531 16.5625 -6.03125 C 17.457031 -6.664062 17.90625 -7.453125 17.90625 -8.390625 Z M 17.90625 -10.421875 "/></g></g></g><g fill="rgb(100%, 100%, 100%)" fill-opacity="1"><g transform="translate(143.464686, 106.728992)"><g><path d="M 19.21875 -24.484375 C 22 -24.484375 24.082031 -23.710938 25.46875 -22.171875 C 26.863281 -20.628906 27.5625 -18.40625 27.5625 -15.5 L 27.5625 0 L 18.546875 0 L 18.546875 -14.421875 C 18.546875 -15.441406 18.28125 -16.257812 17.75 -16.875 C 17.21875 -17.5 16.46875 -17.8125 15.5 -17.8125 C 14.382812 -17.8125 13.476562 -17.445312 12.78125 -16.71875 C 12.082031 -16 11.734375 -15.109375 11.734375 -14.046875 L 11.734375 0 L 2.71875 0 L 2.71875 -23.9375 L 10.109375 -23.9375 L 10.703125 -20.3125 C 11.640625 -21.570312 12.867188 -22.582031 14.390625 -23.34375 C 15.921875 -24.101562 17.53125 -24.484375 19.21875 -24.484375 Z M 19.21875 -24.484375 "/></g></g></g><g fill="rgb(100%, 100%, 100%)" fill-opacity="1"><g transform="translate(173.697741, 106.728992)"><g/></g></g><g fill="rgb(100%, 100%, 100%)" fill-opacity="1"><g transform="translate(188.791599, 106.728992)"><g><path d="M 18.859375 -31.734375 C 24.234375 -31.734375 28.382812 -30.359375 31.3125 -27.609375 C 34.25 -24.859375 35.71875 -20.851562 35.71875 -15.59375 C 35.71875 -10.332031 34.25 -6.328125 31.3125 -3.578125 C 28.382812 -0.828125 24.234375 0.546875 18.859375 0.546875 C 13.472656 0.546875 9.320312 -0.816406 6.40625 -3.546875 C 3.5 -6.285156 2.046875 -10.300781 2.046875 -15.59375 C 2.046875 -20.882812 3.5 -24.894531 6.40625 -27.625 C 9.320312 -30.363281 13.472656 -31.734375 18.859375 -31.734375 Z M 18.859375 -24.25 C 16.710938 -24.25 15.078125 -23.597656 13.953125 -22.296875 C 12.835938 -21.003906 12.28125 -19.253906 12.28125 -17.046875 L 12.28125 -14.140625 C 12.28125 -11.929688 12.835938 -10.175781 13.953125 -8.875 C 15.078125 -7.582031 16.710938 -6.9375 18.859375 -6.9375 C 21.003906 -6.9375 22.640625 -7.582031 23.765625 -8.875 C 24.898438 -10.175781 25.46875 -11.929688 25.46875 -14.140625 L 25.46875 -17.046875 C 25.46875 -19.253906 24.898438 -21.003906 23.765625 -22.296875 C 22.640625 -23.597656 21.003906 -24.25 18.859375 -24.25 Z M 18.859375 -24.25 "/></g></g></g><g fill="rgb(100%, 100%, 100%)" fill-opacity="1"><g transform="translate(226.548915, 106.728992)"><g><path d="M 12.46875 -33.40625 C 13.132812 -33.40625 13.960938 -33.320312 14.953125 -33.15625 C 15.953125 -32.988281 16.753906 -32.800781 17.359375 -32.59375 L 17.359375 -27.28125 L 15.28125 -27.28125 C 14.3125 -27.28125 13.644531 -27.097656 13.28125 -26.734375 C 12.914062 -26.378906 12.734375 -25.765625 12.734375 -24.890625 L 12.734375 -23.9375 L 17.359375 -23.9375 L 17.359375 -17.8125 L 12.734375 -17.8125 L 12.734375 0 L 3.71875 0 L 3.71875 -17.8125 L 0.359375 -17.8125 L 0.359375 -23.9375 L 3.71875 -23.9375 L 3.71875 -24.9375 C 3.71875 -28.007812 4.472656 -30.1875 5.984375 -31.46875 C 7.492188 -32.757812 9.65625 -33.40625 12.46875 -33.40625 Z M 12.46875 -33.40625 "/></g></g></g><g fill="rgb(100%, 100%, 100%)" fill-opacity="1"><g transform="translate(244.181074, 106.728992)"><g/></g></g><g fill="rgb(100%, 100%, 100%)" fill-opacity="1"><g transform="translate(259.274933, 106.728992)"><g><path d="M 25.65625 0 L 12.5625 -15.140625 L 12.5625 0 L 3.359375 0 L 3.359375 -31.1875 L 12.109375 -31.1875 L 25.203125 -15.8125 L 25.203125 -31.1875 L 34.40625 -31.1875 L 34.40625 0 Z M 25.65625 0 "/></g></g></g><g fill="rgb(100%, 100%, 100%)" fill-opacity="1"><g transform="translate(297.032249, 106.728992)"><g><path d="M 3.359375 -31.1875 L 28.5625 -31.1875 L 28.5625 -23.703125 L 13.375 -23.703125 L 13.375 -18.359375 L 26.421875 -18.359375 L 26.421875 -11.203125 L 13.375 -11.203125 L 13.375 0 L 3.359375 0 Z M 3.359375 -31.1875 "/></g></g></g><g fill="rgb(100%, 100%, 100%)" fill-opacity="1"><g transform="translate(327.265303, 106.728992)"><g><path d="M 21.296875 -23.203125 L 21.296875 0 L 11.28125 0 L 11.28125 -23.203125 L 1.046875 -23.203125 L 1.046875 -31.1875 L 31.5 -31.1875 L 31.5 -23.203125 Z M 21.296875 -23.203125 "/></g></g></g></svg>