<svg width="569" height="225" viewBox="0 0 569 225" fill="none" xmlns="http://www.w3.org/2000/svg">
<mask id="mask0" mask-type="alpha" maskUnits="userSpaceOnUse" x="0" y="0" width="569" height="220">
<rect width="569" height="220" rx="66" fill="#02E9E9"/>
</mask>
<g mask="url(#mask0)">
<path d="M686.29 136.532C686.29 474.221 127.336 136.532 127.336 474.221L-113.633 393.024L-46.5347 266.976L151.258 98.7182L686.29 136.532Z" fill="url(#paint0_linear)"/>
<path d="M599.622 24.5198C599.622 362.209 40.6681 24.5198 40.6681 362.209L-200.301 281.011L-133.203 154.964L64.5899 -13.2943L599.622 24.5198Z" fill="url(#paint1_linear)"/>
<path d="M578.541 -25.1921C578.541 262.392 2.40062 -25.1921 2.40062 262.392L-245.977 181.627L-176.816 74.2821L27.058 -69.0104L578.541 -25.1921Z" fill="url(#paint2_linear)"/>
<path d="M567.414 -130.24C567.414 204.056 6.41435 -130.24 6.41435 204.056L-235.436 123.674L-168.093 -1.10649L30.4238 -167.674L567.414 -130.24Z" fill="url(#paint3_linear)"/>
</g>
<g filter="url(#filter0_d)">
<path d="M196.184 24.7988C206.665 40.5215 217.147 61.1432 227.629 86.6641L265.227 183.734C266.366 186.241 267.049 188.975 267.277 191.938C267.733 198.318 265.91 203.786 261.809 208.344C257.479 212.901 252.01 215.18 245.402 215.18C238.339 215.18 233.098 213.585 229.68 210.395C226.034 207.432 223.072 203.559 220.793 198.773L188.322 109.906C184.676 100.564 181.145 91.6771 177.727 83.2461C174.081 75.043 170.093 67.5234 165.764 60.6875C161.434 53.8516 156.535 50.2057 151.066 49.75C145.826 50.2057 141.154 53.8516 137.053 60.6875C132.495 67.5234 128.508 75.043 125.09 83.2461C121.444 91.6771 117.798 100.564 114.152 109.906L82.3652 198.773C80.0866 203.559 77.2383 207.432 73.8203 210.395C70.1745 213.585 64.5918 215.18 57.0723 215.18C50.4642 215.18 45.1094 212.901 41.0078 208.344C36.6784 203.786 34.7415 198.318 35.1973 191.937C35.4251 188.975 36.1087 186.241 37.248 183.734L74.8457 86.6641C85.3275 60.6875 95.8092 39.9518 106.291 24.457C116.545 9.1901 131.47 1.44271 151.066 1.21484C170.891 1.44271 185.93 9.30404 196.184 24.7988Z" fill="white"/>
<path d="M196.184 24.7988L195.35 25.3507L195.352 25.3535L196.184 24.7988ZM227.629 86.6641L228.561 86.3029L228.558 86.2935L228.554 86.2841L227.629 86.6641ZM265.227 183.734L264.294 184.096L264.304 184.122L264.316 184.148L265.227 183.734ZM267.277 191.938L268.275 191.866L268.274 191.861L267.277 191.938ZM261.809 208.344L262.534 209.032L262.543 209.023L262.552 209.013L261.809 208.344ZM229.68 210.395L230.362 209.663L230.337 209.64L230.31 209.618L229.68 210.395ZM220.793 198.773L219.854 199.117L219.87 199.161L219.89 199.203L220.793 198.773ZM188.322 109.906L189.262 109.563L189.258 109.553L189.254 109.543L188.322 109.906ZM177.727 83.2461L178.653 82.8704L178.647 82.8551L178.64 82.84L177.727 83.2461ZM151.066 49.75L151.149 48.7535L151.065 48.7464L150.98 48.7538L151.066 49.75ZM137.053 60.6875L137.885 61.2422L137.898 61.2224L137.91 61.202L137.053 60.6875ZM125.09 83.2461L126.008 83.643L126.013 83.6307L125.09 83.2461ZM114.152 109.906L113.221 109.543L113.216 109.556L113.211 109.569L114.152 109.906ZM82.3652 198.773L83.2681 199.203L83.2898 199.158L83.3068 199.11L82.3652 198.773ZM73.8203 210.395L73.1654 209.639L73.1618 209.642L73.8203 210.395ZM41.0078 208.344L41.7511 207.675L41.7421 207.665L41.7328 207.655L41.0078 208.344ZM35.1973 191.937L34.2002 191.861L34.1998 191.866L35.1973 191.937ZM37.248 183.734L38.1584 184.148L38.1702 184.122L38.1805 184.096L37.248 183.734ZM74.8457 86.6641L73.9183 86.2898L73.9132 86.3029L74.8457 86.6641ZM106.291 24.457L107.119 25.0173L107.121 25.0146L106.291 24.457ZM151.066 1.21484L151.078 0.21491L151.066 0.214777L151.055 0.214911L151.066 1.21484ZM195.352 25.3535C205.784 41.0023 216.237 61.5591 226.704 87.044L228.554 86.2841C218.057 60.7273 207.547 40.0406 197.016 24.2441L195.352 25.3535ZM226.696 87.0252L264.294 184.096L266.159 183.373L228.561 86.3029L226.696 87.0252ZM264.316 184.148C265.403 186.54 266.061 189.159 266.28 192.014L268.274 191.861C268.038 188.791 267.328 185.942 266.137 183.321L264.316 184.148ZM266.28 192.009C266.717 198.131 264.976 203.329 261.065 207.675L262.552 209.013C266.844 204.244 268.749 198.504 268.275 191.866L266.28 192.009ZM261.084 207.655C256.954 212.002 251.752 214.18 245.402 214.18V216.18C252.269 216.18 258.005 213.8 262.534 209.032L261.084 207.655ZM245.402 214.18C238.466 214.18 233.52 212.611 230.362 209.663L228.997 211.126C232.676 214.559 238.211 216.18 245.402 216.18V214.18ZM230.31 209.618C226.794 206.761 223.919 203.012 221.696 198.344L219.89 199.203C222.224 204.105 225.274 208.103 229.049 211.171L230.31 209.618ZM221.732 198.43L189.262 109.563L187.383 110.249L219.854 199.117L221.732 198.43ZM189.254 109.543C185.607 100.197 182.073 91.3058 178.653 82.8704L176.8 83.6218C180.216 92.0484 183.746 100.931 187.391 110.27L189.254 109.543ZM178.64 82.84C174.977 74.597 170.967 67.0338 166.608 60.1524L164.919 61.2226C169.22 68.0131 173.185 75.4889 176.813 83.6522L178.64 82.84ZM166.608 60.1524C162.194 53.1827 157.058 49.2458 151.149 48.7535L150.983 50.7465C156.012 51.1656 160.674 54.5204 164.919 61.2226L166.608 60.1524ZM150.98 48.7538C145.28 49.2494 140.373 53.2093 136.195 60.173L137.91 61.202C141.935 54.4938 146.371 51.1621 151.153 50.7462L150.98 48.7538ZM136.221 60.1328C131.625 67.0265 127.608 74.6037 124.167 82.8615L126.013 83.6307C129.408 75.4823 133.366 68.0204 137.885 61.2422L136.221 60.1328ZM124.172 82.8492C120.521 91.2922 116.871 100.19 113.221 109.543L115.084 110.27C118.726 100.938 122.367 92.062 126.008 83.643L124.172 82.8492ZM113.211 109.569L81.4237 198.437L83.3068 199.11L115.094 110.243L113.211 109.569ZM81.4624 198.344C79.233 203.025 76.4628 206.781 73.1654 209.639L74.4752 211.15C78.0138 208.083 80.9402 204.092 83.2681 199.203L81.4624 198.344ZM73.1618 209.642C69.7757 212.605 64.4774 214.18 57.0723 214.18V216.18C64.7061 216.18 70.5732 214.565 74.4788 211.147L73.1618 209.642ZM57.0723 214.18C50.7229 214.18 45.6471 212.004 41.7511 207.675L40.2645 209.013C44.5717 213.798 50.2055 216.18 57.0723 216.18V214.18ZM41.7328 207.655C37.6008 203.306 35.7586 198.114 36.1947 192.009L34.1998 191.866C33.7245 198.521 35.7559 204.267 40.2828 209.032L41.7328 207.655ZM36.1943 192.014C36.4139 189.159 37.0712 186.54 38.1584 184.148L36.3377 183.321C35.1463 185.942 34.4363 188.791 34.2002 191.861L36.1943 192.014ZM38.1805 184.096L75.7782 87.0252L73.9132 86.3029L36.3156 183.373L38.1805 184.096ZM75.7731 87.0383C86.2401 61.0982 96.6913 40.4327 107.119 25.0173L105.463 23.8967C94.9272 39.471 84.4149 60.2768 73.9184 86.2899L75.7731 87.0383ZM107.121 25.0146C117.178 10.0413 131.785 2.43911 151.078 2.21478L151.055 0.214911C131.155 0.446304 115.912 8.33887 105.461 23.8995L107.121 25.0146ZM151.055 2.21478C170.574 2.43914 185.293 10.1536 195.35 25.3507L197.018 24.247C186.567 8.45446 171.207 0.446282 151.078 0.21491L151.055 2.21478Z" fill="black" fill-opacity="0.18"/>
</g>
<g filter="url(#filter1_d)">
<path d="M465.184 24.7988C475.665 40.5215 486.147 61.1432 496.629 86.6641L534.227 183.734C535.366 186.241 536.049 188.975 536.277 191.938C536.733 198.318 534.91 203.786 530.809 208.344C526.479 212.901 521.01 215.18 514.402 215.18C507.339 215.18 502.098 213.585 498.68 210.395C495.034 207.432 492.072 203.559 489.793 198.773L457.322 109.906C453.676 100.564 450.145 91.6771 446.727 83.2461C443.081 75.043 439.093 67.5234 434.764 60.6875C430.434 53.8516 425.535 50.2057 420.066 49.75C414.826 50.2057 410.154 53.8516 406.053 60.6875C401.495 67.5234 397.508 75.043 394.09 83.2461C390.444 91.6771 386.798 100.564 383.152 109.906L351.365 198.773C349.087 203.559 346.238 207.432 342.82 210.395C339.174 213.585 333.592 215.18 326.072 215.18C319.464 215.18 314.109 212.901 310.008 208.344C305.678 203.786 303.742 198.318 304.197 191.937C304.425 188.975 305.109 186.241 306.248 183.734L343.846 86.6641C354.327 60.6875 364.809 39.9518 375.291 24.457C385.545 9.1901 400.47 1.44271 420.066 1.21484C439.891 1.44271 454.93 9.30404 465.184 24.7988Z" fill="white"/>
<path d="M465.184 24.7988L464.35 25.3507L464.352 25.3535L465.184 24.7988ZM496.629 86.6641L497.561 86.3029L497.558 86.2935L497.554 86.2841L496.629 86.6641ZM534.227 183.734L533.294 184.096L533.304 184.122L533.316 184.148L534.227 183.734ZM536.277 191.938L537.275 191.866L537.274 191.861L536.277 191.938ZM530.809 208.344L531.534 209.032L531.543 209.023L531.552 209.013L530.809 208.344ZM498.68 210.395L499.362 209.663L499.337 209.64L499.31 209.618L498.68 210.395ZM489.793 198.773L488.854 199.117L488.87 199.161L488.89 199.203L489.793 198.773ZM457.322 109.906L458.262 109.563L458.258 109.553L458.254 109.543L457.322 109.906ZM446.727 83.2461L447.653 82.8704L447.647 82.8551L447.64 82.84L446.727 83.2461ZM420.066 49.75L420.149 48.7535L420.065 48.7464L419.98 48.7538L420.066 49.75ZM406.053 60.6875L406.885 61.2422L406.898 61.2224L406.91 61.202L406.053 60.6875ZM394.09 83.2461L395.008 83.643L395.013 83.6307L394.09 83.2461ZM383.152 109.906L382.221 109.543L382.216 109.556L382.211 109.569L383.152 109.906ZM351.365 198.773L352.268 199.203L352.29 199.158L352.307 199.11L351.365 198.773ZM342.82 210.395L342.165 209.639L342.162 209.642L342.82 210.395ZM310.008 208.344L310.751 207.675L310.742 207.665L310.733 207.655L310.008 208.344ZM304.197 191.937L303.2 191.861L303.2 191.866L304.197 191.937ZM306.248 183.734L307.158 184.148L307.17 184.122L307.181 184.096L306.248 183.734ZM343.846 86.6641L342.918 86.2898L342.913 86.3029L343.846 86.6641ZM375.291 24.457L376.119 25.0173L376.121 25.0146L375.291 24.457ZM420.066 1.21484L420.078 0.21491L420.066 0.214777L420.055 0.214911L420.066 1.21484ZM464.352 25.3535C474.784 41.0023 485.237 61.5591 495.704 87.044L497.554 86.2841C487.057 60.7273 476.547 40.0406 466.016 24.2441L464.352 25.3535ZM495.696 87.0252L533.294 184.096L535.159 183.373L497.561 86.3029L495.696 87.0252ZM533.316 184.148C534.403 186.54 535.061 189.159 535.28 192.014L537.274 191.861C537.038 188.791 536.328 185.942 535.137 183.321L533.316 184.148ZM535.28 192.009C535.717 198.131 533.976 203.329 530.065 207.675L531.552 209.013C535.844 204.244 537.749 198.504 537.275 191.866L535.28 192.009ZM530.084 207.655C525.954 212.002 520.752 214.18 514.402 214.18V216.18C521.269 216.18 527.005 213.8 531.534 209.032L530.084 207.655ZM514.402 214.18C507.466 214.18 502.52 212.611 499.362 209.663L497.997 211.126C501.676 214.559 507.211 216.18 514.402 216.18V214.18ZM499.31 209.618C495.794 206.761 492.919 203.012 490.696 198.344L488.89 199.203C491.224 204.105 494.274 208.103 498.049 211.171L499.31 209.618ZM490.732 198.43L458.262 109.563L456.383 110.249L488.854 199.117L490.732 198.43ZM458.254 109.543C454.607 100.197 451.073 91.3058 447.653 82.8704L445.8 83.6218C449.216 92.0484 452.746 100.931 456.391 110.27L458.254 109.543ZM447.64 82.84C443.977 74.597 439.967 67.0338 435.608 60.1524L433.919 61.2226C438.22 68.0131 442.185 75.4889 445.813 83.6522L447.64 82.84ZM435.608 60.1524C431.194 53.1827 426.058 49.2458 420.149 48.7535L419.983 50.7465C425.012 51.1656 429.674 54.5204 433.919 61.2226L435.608 60.1524ZM419.98 48.7538C414.28 49.2494 409.373 53.2093 405.195 60.173L406.91 61.202C410.935 54.4938 415.371 51.1621 420.153 50.7462L419.98 48.7538ZM405.221 60.1328C400.625 67.0265 396.608 74.6037 393.167 82.8615L395.013 83.6307C398.408 75.4823 402.366 68.0204 406.885 61.2422L405.221 60.1328ZM393.172 82.8492C389.521 91.2922 385.871 100.19 382.221 109.543L384.084 110.27C387.726 100.938 391.367 92.062 395.008 83.643L393.172 82.8492ZM382.211 109.569L350.424 198.437L352.307 199.11L384.094 110.243L382.211 109.569ZM350.462 198.344C348.233 203.025 345.463 206.781 342.165 209.639L343.475 211.15C347.014 208.083 349.94 204.092 352.268 199.203L350.462 198.344ZM342.162 209.642C338.776 212.605 333.477 214.18 326.072 214.18V216.18C333.706 216.18 339.573 214.565 343.479 211.147L342.162 209.642ZM326.072 214.18C319.723 214.18 314.647 212.004 310.751 207.675L309.265 209.013C313.572 213.798 319.205 216.18 326.072 216.18V214.18ZM310.733 207.655C306.601 203.306 304.759 198.114 305.195 192.009L303.2 191.866C302.724 198.521 304.756 204.267 309.283 209.032L310.733 207.655ZM305.194 192.014C305.414 189.159 306.071 186.54 307.158 184.148L305.338 183.321C304.146 185.942 303.436 188.791 303.2 191.861L305.194 192.014ZM307.181 184.096L344.778 87.0252L342.913 86.3029L305.316 183.373L307.181 184.096ZM344.773 87.0383C355.24 61.0982 365.691 40.4327 376.119 25.0173L374.463 23.8967C363.927 39.471 353.415 60.2768 342.918 86.2899L344.773 87.0383ZM376.121 25.0146C386.178 10.0413 400.785 2.43911 420.078 2.21478L420.055 0.214911C400.155 0.446304 384.912 8.33887 374.461 23.8995L376.121 25.0146ZM420.055 2.21478C439.574 2.43914 454.293 10.1536 464.35 25.3507L466.018 24.247C455.567 8.45446 440.207 0.446282 420.078 0.21491L420.055 2.21478Z" fill="black" fill-opacity="0.18"/>
</g>
<g filter="url(#filter2_d)">
<path d="M421.5 141.477C423.938 141.477 426.328 141.758 428.672 142.32C431.062 142.883 433.336 143.727 435.492 144.852C437.648 145.93 439.547 147.383 441.188 149.211C442.875 151.039 443.789 153.219 443.93 155.75V158.703V181.133C443.648 183.945 442.102 185.469 439.289 185.703C437.977 185.703 436.828 185.281 435.844 184.438C434.906 183.547 434.438 182.445 434.438 181.133V157.93C434.344 156.477 433.781 155.281 432.75 154.344C431.766 153.359 430.641 152.586 429.375 152.023C428.156 151.461 426.867 151.039 425.508 150.758C424.195 150.477 422.859 150.336 421.5 150.336C420.141 150.336 418.781 150.477 417.422 150.758C416.109 151.039 414.82 151.461 413.555 152.023C412.336 152.586 411.211 153.359 410.18 154.344C409.195 155.281 408.656 156.477 408.562 157.93V181.133C408.328 183.945 406.805 185.469 403.992 185.703C402.68 185.703 401.531 185.281 400.547 184.438C399.609 183.547 399.141 182.445 399.141 181.133V158.703V155.75C399.281 153.219 400.172 151.039 401.812 149.211C403.453 147.383 405.352 145.93 407.508 144.852C409.664 143.727 411.914 142.883 414.258 142.32C416.648 141.758 419.062 141.477 421.5 141.477Z" fill="white"/>
<path d="M428.672 142.32L428.438 143.293L428.443 143.294L428.672 142.32ZM435.492 144.852L435.03 145.738L435.037 145.742L435.045 145.746L435.492 144.852ZM441.188 149.211L440.443 149.879L440.453 149.889L441.188 149.211ZM443.93 155.75H444.93V155.722L444.928 155.695L443.93 155.75ZM443.93 181.133L444.925 181.232L444.93 181.183V181.133H443.93ZM439.289 185.703V186.703H439.331L439.372 186.7L439.289 185.703ZM435.844 184.438L435.155 185.162L435.174 185.18L435.193 185.197L435.844 184.438ZM434.438 157.93H435.438V157.897L435.435 157.865L434.438 157.93ZM432.75 154.344L432.043 155.051L432.06 155.068L432.077 155.084L432.75 154.344ZM429.375 152.023L428.956 152.931L428.962 152.934L428.969 152.937L429.375 152.023ZM425.508 150.758L425.298 151.736L425.305 151.737L425.508 150.758ZM417.422 150.758L417.219 149.779L417.212 149.78L417.422 150.758ZM413.555 152.023L413.149 151.11L413.142 151.113L413.136 151.115L413.555 152.023ZM410.18 154.344L410.869 155.068L410.87 155.067L410.18 154.344ZM408.562 157.93L407.565 157.865L407.562 157.897V157.93H408.562ZM408.562 181.133L409.559 181.216L409.562 181.174V181.133H408.562ZM403.992 185.703V186.703H404.034L404.075 186.7L403.992 185.703ZM400.547 184.438L399.858 185.162L399.877 185.18L399.896 185.197L400.547 184.438ZM399.141 155.75L398.142 155.695L398.141 155.722V155.75H399.141ZM407.508 144.852L407.955 145.746L407.963 145.742L407.97 145.738L407.508 144.852ZM414.258 142.32L414.029 141.347L414.024 141.348L414.258 142.32ZM421.5 142.477C423.86 142.477 426.172 142.749 428.439 143.293L428.905 141.348C426.484 140.767 424.015 140.477 421.5 140.477V142.477ZM428.443 143.294C430.753 143.837 432.948 144.652 435.03 145.738L435.955 143.965C433.724 142.801 431.372 141.928 428.901 141.347L428.443 143.294ZM435.045 145.746C437.087 146.767 438.885 148.142 440.443 149.879L441.932 148.543C440.209 146.623 438.21 145.093 435.939 143.957L435.045 145.746ZM440.453 149.889C441.979 151.543 442.803 153.501 442.931 155.805L444.928 155.695C444.775 152.936 443.771 150.535 441.922 148.533L440.453 149.889ZM442.93 155.75V158.703H444.93V155.75H442.93ZM442.93 158.703V181.133H444.93V158.703H442.93ZM442.935 181.033C442.81 182.278 442.419 183.118 441.857 183.672C441.295 184.226 440.45 184.603 439.206 184.707L439.372 186.7C440.94 186.569 442.276 186.067 443.26 185.097C444.245 184.128 444.768 182.8 444.925 181.232L442.935 181.033ZM439.289 184.703C438.212 184.703 437.295 184.365 436.495 183.678L435.193 185.197C436.361 186.198 437.741 186.703 439.289 186.703V184.703ZM436.532 183.713C435.797 183.014 435.438 182.176 435.438 181.133H433.438C433.438 182.715 434.015 184.08 435.155 185.162L436.532 183.713ZM435.438 181.133V157.93H433.438V181.133H435.438ZM435.435 157.865C435.326 156.166 434.655 154.724 433.423 153.604L432.077 155.084C432.907 155.838 433.362 156.787 433.44 157.994L435.435 157.865ZM433.457 153.637C432.386 152.566 431.16 151.722 429.781 151.11L428.969 152.937C430.122 153.45 431.145 154.153 432.043 155.051L433.457 153.637ZM429.794 151.115C428.504 150.52 427.142 150.075 425.71 149.779L425.305 151.737C426.593 152.003 427.809 152.402 428.956 152.931L429.794 151.115ZM425.717 149.78C424.335 149.484 422.929 149.336 421.5 149.336V151.336C422.79 151.336 424.056 151.469 425.298 151.736L425.717 149.78ZM421.5 149.336C420.071 149.336 418.644 149.484 417.219 149.779L417.624 151.737C418.919 151.469 420.21 151.336 421.5 151.336V149.336ZM417.212 149.78C415.83 150.076 414.475 150.52 413.149 151.11L413.961 152.937C415.165 152.402 416.389 152.002 417.631 151.736L417.212 149.78ZM413.136 151.115C411.811 151.727 410.595 152.565 409.489 153.62L410.87 155.067C411.827 154.154 412.861 153.445 413.974 152.931L413.136 151.115ZM409.49 153.62C408.31 154.744 407.673 156.181 407.565 157.865L409.56 157.994C409.639 156.772 410.081 155.819 410.869 155.068L409.49 153.62ZM407.562 157.93V181.133H409.562V157.93H407.562ZM407.566 181.05C407.462 182.294 407.086 183.129 406.537 183.678C405.989 184.226 405.154 184.603 403.909 184.707L404.075 186.7C405.643 186.569 406.976 186.067 407.951 185.092C408.926 184.117 409.428 182.784 409.559 181.216L407.566 181.05ZM403.992 184.703C402.915 184.703 401.998 184.365 401.198 183.678L399.896 185.197C401.064 186.198 402.444 186.703 403.992 186.703V184.703ZM401.236 183.713C400.5 183.014 400.141 182.176 400.141 181.133H398.141C398.141 182.715 398.719 184.08 399.858 185.162L401.236 183.713ZM400.141 181.133V158.703H398.141V181.133H400.141ZM400.141 158.703V155.75H398.141V158.703H400.141ZM400.139 155.805C400.268 153.493 401.073 151.532 402.557 149.879L401.068 148.543C399.271 150.546 398.295 152.944 398.142 155.695L400.139 155.805ZM402.557 149.879C404.115 148.142 405.913 146.767 407.955 145.746L407.061 143.957C404.79 145.093 402.791 146.623 401.068 148.543L402.557 149.879ZM407.97 145.738C410.055 144.651 412.228 143.836 414.491 143.293L414.024 141.348C411.6 141.93 409.273 142.802 407.045 143.965L407.97 145.738ZM414.487 143.294C416.803 142.749 419.14 142.477 421.5 142.477V140.477C418.985 140.477 416.494 140.767 414.029 141.347L414.487 143.294Z" fill="black" fill-opacity="0.2"/>
</g>
<g filter="url(#filter3_d)">
<path d="M139.48 141.477C141.121 141.477 142.715 141.758 144.262 142.32C145.855 142.883 147.379 143.703 148.832 144.781C149.066 145.016 149.324 145.25 149.605 145.484C149.84 145.25 150.098 145.016 150.379 144.781C151.832 143.703 153.332 142.883 154.879 142.32C156.473 141.758 158.066 141.477 159.66 141.477C161.301 141.477 162.895 141.758 164.441 142.32C166.035 142.883 167.535 143.727 168.941 144.852C170.395 145.93 171.66 147.383 172.738 149.211C173.863 151.039 174.426 153.219 174.426 155.75V181.133C174.145 183.945 172.598 185.469 169.785 185.703C168.473 185.703 167.324 185.281 166.34 184.438C165.402 183.547 164.934 182.445 164.934 181.133V156.312C164.934 155.188 164.723 154.25 164.301 153.5C163.879 152.703 163.41 152.094 162.895 151.672C162.379 151.203 161.84 150.875 161.277 150.688C160.715 150.453 160.152 150.336 159.59 150.336C159.027 150.336 158.465 150.453 157.902 150.688C157.387 150.875 156.871 151.203 156.355 151.672C155.84 152.094 155.371 152.703 154.949 153.5C154.527 154.25 154.293 155.188 154.246 156.312V181.133C153.965 183.945 152.418 185.469 149.605 185.703C148.293 185.703 147.145 185.281 146.16 184.438C145.223 183.547 144.754 182.445 144.754 181.133V156.312C144.754 155.188 144.543 154.25 144.121 153.5C143.699 152.703 143.23 152.094 142.715 151.672C142.199 151.203 141.66 150.875 141.098 150.688C140.535 150.453 139.973 150.336 139.41 150.336C138.848 150.336 138.285 150.453 137.723 150.688C137.207 150.875 136.691 151.203 136.176 151.672C135.66 152.094 135.191 152.703 134.77 153.5C134.348 154.25 134.113 155.188 134.066 156.312V181.133C133.832 183.945 132.309 185.469 129.496 185.703C128.184 185.703 127.035 185.281 126.051 184.438C125.113 183.547 124.645 182.445 124.645 181.133V155.75C124.738 153.219 125.324 151.039 126.402 149.211C127.48 147.383 128.746 145.93 130.199 144.852C131.652 143.727 133.152 142.883 134.699 142.32C136.293 141.758 137.887 141.477 139.48 141.477Z" fill="white"/>
<path d="M144.262 142.32L143.92 143.26L143.929 143.263L144.262 142.32ZM148.832 144.781L149.539 144.074L149.487 144.022L149.428 143.978L148.832 144.781ZM149.605 145.484L148.965 146.253L149.667 146.837L150.313 146.191L149.605 145.484ZM150.379 144.781L149.783 143.978L149.76 143.995L149.739 144.013L150.379 144.781ZM154.879 142.32L154.546 141.377L154.537 141.381L154.879 142.32ZM164.441 142.32L164.1 143.26L164.109 143.263L164.441 142.32ZM168.941 144.852L168.317 145.632L168.331 145.644L168.346 145.655L168.941 144.852ZM172.738 149.211L171.877 149.719L171.882 149.727L171.887 149.735L172.738 149.211ZM174.426 181.133L175.421 181.232L175.426 181.183V181.133H174.426ZM169.785 185.703V186.703H169.827L169.868 186.7L169.785 185.703ZM166.34 184.438L165.651 185.162L165.67 185.18L165.689 185.197L166.34 184.438ZM164.301 153.5L163.417 153.968L163.423 153.979L163.429 153.99L164.301 153.5ZM162.895 151.672L162.222 152.412L162.241 152.429L162.261 152.446L162.895 151.672ZM161.277 150.688L160.893 151.611L160.926 151.625L160.961 151.636L161.277 150.688ZM157.902 150.688L158.244 151.627L158.266 151.619L158.287 151.611L157.902 150.688ZM156.355 151.672L156.989 152.446L157.009 152.429L157.028 152.412L156.355 151.672ZM154.949 153.5L155.821 153.99L155.827 153.979L155.833 153.968L154.949 153.5ZM154.246 156.312L153.247 156.271L153.246 156.292V156.312H154.246ZM154.246 181.133L155.241 181.232L155.246 181.183V181.133H154.246ZM149.605 185.703V186.703H149.647L149.689 186.7L149.605 185.703ZM146.16 184.438L145.471 185.162L145.49 185.18L145.509 185.197L146.16 184.438ZM144.121 153.5L143.237 153.968L143.243 153.979L143.25 153.99L144.121 153.5ZM142.715 151.672L142.042 152.412L142.061 152.429L142.082 152.446L142.715 151.672ZM141.098 150.688L140.713 151.611L140.747 151.625L140.781 151.636L141.098 150.688ZM137.723 150.688L138.064 151.627L138.086 151.619L138.107 151.611L137.723 150.688ZM136.176 151.672L136.809 152.446L136.829 152.429L136.848 152.412L136.176 151.672ZM134.77 153.5L135.641 153.99L135.647 153.979L135.653 153.968L134.77 153.5ZM134.066 156.312L133.067 156.271L133.066 156.292V156.312H134.066ZM134.066 181.133L135.063 181.216L135.066 181.174V181.133H134.066ZM129.496 185.703V186.703H129.538L129.579 186.7L129.496 185.703ZM126.051 184.438L125.362 185.162L125.381 185.18L125.4 185.197L126.051 184.438ZM124.645 155.75L123.645 155.713L123.645 155.731V155.75H124.645ZM130.199 144.852L130.795 145.655L130.803 145.649L130.811 145.642L130.199 144.852ZM134.699 142.32L134.366 141.377L134.357 141.381L134.699 142.32ZM139.48 142.477C141.004 142.477 142.482 142.737 143.92 143.26L144.603 141.381C142.947 140.778 141.238 140.477 139.48 140.477V142.477ZM143.929 143.263C145.422 143.79 146.858 144.562 148.236 145.584L149.428 143.978C147.9 142.845 146.289 141.975 144.595 141.377L143.929 143.263ZM148.125 145.488C148.383 145.746 148.663 146.001 148.965 146.253L150.246 144.716C149.985 144.499 149.75 144.285 149.539 144.074L148.125 145.488ZM150.313 146.191C150.524 145.981 150.759 145.766 151.019 145.549L149.739 144.013C149.437 144.265 149.156 144.519 148.898 144.777L150.313 146.191ZM150.975 145.584C152.358 144.558 153.773 143.786 155.221 143.26L154.537 141.381C152.891 141.979 151.306 142.848 149.783 143.978L150.975 145.584ZM155.212 143.263C156.705 142.736 158.186 142.477 159.66 142.477V140.477C157.946 140.477 156.24 140.779 154.546 141.377L155.212 143.263ZM159.66 142.477C161.184 142.477 162.662 142.737 164.1 143.26L164.783 141.381C163.127 140.778 161.418 140.477 159.66 140.477V142.477ZM164.109 143.263C165.59 143.786 166.992 144.573 168.317 145.632L169.566 144.071C168.078 142.88 166.48 141.98 164.774 141.377L164.109 143.263ZM168.346 145.655C169.674 146.641 170.855 147.986 171.877 149.719L173.6 148.703C172.465 146.779 171.115 145.219 169.537 144.048L168.346 145.655ZM171.887 149.735C172.898 151.379 173.426 153.37 173.426 155.75H175.426C175.426 153.067 174.828 150.699 173.59 148.687L171.887 149.735ZM173.426 155.75V181.133H175.426V155.75H173.426ZM173.431 181.033C173.306 182.278 172.915 183.118 172.353 183.672C171.791 184.226 170.946 184.603 169.702 184.707L169.868 186.7C171.437 186.569 172.772 186.067 173.756 185.097C174.741 184.128 175.264 182.8 175.421 181.232L173.431 181.033ZM169.785 184.703C168.708 184.703 167.791 184.365 166.991 183.678L165.689 185.197C166.857 186.198 168.237 186.703 169.785 186.703V184.703ZM167.029 183.713C166.293 183.014 165.934 182.176 165.934 181.133H163.934C163.934 182.715 164.512 184.08 165.651 185.162L167.029 183.713ZM165.934 181.133V156.312H163.934V181.133H165.934ZM165.934 156.312C165.934 155.067 165.7 153.949 165.172 153.01L163.429 153.99C163.745 154.551 163.934 155.308 163.934 156.312H165.934ZM165.185 153.032C164.721 152.157 164.176 151.428 163.528 150.898L162.261 152.446C162.644 152.759 163.037 153.25 163.417 153.968L165.185 153.032ZM163.567 150.932C162.966 150.386 162.309 149.977 161.594 149.739L160.961 151.636C161.37 151.773 161.791 152.02 162.222 152.412L163.567 150.932ZM161.662 149.764C160.988 149.484 160.295 149.336 159.59 149.336V151.336C160.01 151.336 160.442 151.423 160.893 151.611L161.662 149.764ZM159.59 149.336C158.885 149.336 158.192 149.484 157.518 149.764L158.287 151.611C158.738 151.423 159.17 151.336 159.59 151.336V149.336ZM157.561 149.748C156.895 149.99 156.27 150.398 155.683 150.932L157.028 152.412C157.472 152.008 157.879 151.76 158.244 151.627L157.561 149.748ZM155.722 150.898C155.074 151.428 154.529 152.157 154.065 153.032L155.833 153.968C156.213 153.25 156.606 152.759 156.989 152.446L155.722 150.898ZM154.078 153.01C153.558 153.933 153.298 155.035 153.247 156.271L155.245 156.354C155.287 155.34 155.496 154.567 155.821 153.99L154.078 153.01ZM153.246 156.312V181.133H155.246V156.312H153.246ZM153.251 181.033C153.127 182.278 152.736 183.118 152.173 183.672C151.611 184.226 150.767 184.603 149.522 184.707L149.689 186.7C151.257 186.569 152.592 186.067 153.577 185.097C154.561 184.128 155.084 182.8 155.241 181.232L153.251 181.033ZM149.605 184.703C148.528 184.703 147.612 184.365 146.811 183.678L145.509 185.197C146.677 186.198 148.057 186.703 149.605 186.703V184.703ZM146.849 183.713C146.113 183.014 145.754 182.176 145.754 181.133H143.754C143.754 182.715 144.332 184.08 145.471 185.162L146.849 183.713ZM145.754 181.133V156.312H143.754V181.133H145.754ZM145.754 156.312C145.754 155.067 145.521 153.949 144.993 153.01L143.25 153.99C143.565 154.551 143.754 155.308 143.754 156.312H145.754ZM145.005 153.032C144.541 152.157 143.996 151.428 143.348 150.898L142.082 152.446C142.465 152.759 142.857 153.25 143.237 153.968L145.005 153.032ZM143.388 150.932C142.787 150.386 142.13 149.977 141.414 149.739L140.781 151.636C141.191 151.773 141.612 152.02 142.042 152.412L143.388 150.932ZM141.482 149.764C140.808 149.484 140.115 149.336 139.41 149.336V151.336C139.83 151.336 140.262 151.423 140.713 151.611L141.482 149.764ZM139.41 149.336C138.705 149.336 138.012 149.484 137.338 149.764L138.107 151.611C138.558 151.423 138.99 151.336 139.41 151.336V149.336ZM137.381 149.748C136.715 149.99 136.09 150.398 135.503 150.932L136.848 152.412C137.293 152.008 137.699 151.76 138.064 151.627L137.381 149.748ZM135.543 150.898C134.894 151.428 134.349 152.157 133.886 153.032L135.653 153.968C136.034 153.25 136.426 152.759 136.809 152.446L135.543 150.898ZM133.898 153.01C133.379 153.933 133.119 155.035 133.067 156.271L135.066 156.354C135.108 155.34 135.317 154.567 135.641 153.99L133.898 153.01ZM133.066 156.312V181.133H135.066V156.312H133.066ZM133.07 181.05C132.966 182.294 132.589 183.129 132.041 183.678C131.492 184.226 130.658 184.603 129.413 184.707L129.579 186.7C131.147 186.569 132.48 186.067 133.455 185.092C134.43 184.117 134.932 182.784 135.063 181.216L133.07 181.05ZM129.496 184.703C128.419 184.703 127.502 184.365 126.702 183.678L125.4 185.197C126.568 186.198 127.948 186.703 129.496 186.703V184.703ZM126.74 183.713C126.004 183.014 125.645 182.176 125.645 181.133H123.645C123.645 182.715 124.222 184.08 125.362 185.162L126.74 183.713ZM125.645 181.133V155.75H123.645V181.133H125.645ZM125.644 155.787C125.733 153.39 126.285 151.379 127.264 149.719L125.541 148.703C124.364 150.699 123.744 153.048 123.645 155.713L125.644 155.787ZM127.264 149.719C128.286 147.986 129.466 146.641 130.795 145.655L129.603 144.048C128.026 145.219 126.675 146.779 125.541 148.703L127.264 149.719ZM130.811 145.642C132.192 144.573 133.602 143.783 135.041 143.26L134.357 141.381C132.703 141.982 131.113 142.88 129.587 144.061L130.811 145.642ZM135.032 143.263C136.525 142.736 138.007 142.477 139.48 142.477V140.477C137.767 140.477 136.061 140.779 134.366 141.377L135.032 143.263Z" fill="black" fill-opacity="0.2"/>
</g>
<defs>
<filter id="filter0_d" x="30.1322" y="0.214783" width="242.213" height="223.965" filterUnits="userSpaceOnUse" color-interpolation-filters="sRGB">
<feFlood flood-opacity="0" result="BackgroundImageFix"/>
<feColorMatrix in="SourceAlpha" type="matrix" values="0 0 0 0 0 0 0 0 0 0 0 0 0 0 0 0 0 0 127 0"/>
<feOffset dy="4"/>
<feGaussianBlur stdDeviation="2"/>
<feColorMatrix type="matrix" values="0 0 0 0 0 0 0 0 0 0 0 0 0 0 0 0 0 0 0.25 0"/>
<feBlend mode="normal" in2="BackgroundImageFix" result="effect1_dropShadow"/>
<feBlend mode="normal" in="SourceGraphic" in2="effect1_dropShadow" result="shape"/>
</filter>
<filter id="filter1_d" x="299.132" y="0.214783" width="242.213" height="223.965" filterUnits="userSpaceOnUse" color-interpolation-filters="sRGB">
<feFlood flood-opacity="0" result="BackgroundImageFix"/>
<feColorMatrix in="SourceAlpha" type="matrix" values="0 0 0 0 0 0 0 0 0 0 0 0 0 0 0 0 0 0 127 0"/>
<feOffset dy="4"/>
<feGaussianBlur stdDeviation="2"/>
<feColorMatrix type="matrix" values="0 0 0 0 0 0 0 0 0 0 0 0 0 0 0 0 0 0 0.25 0"/>
<feBlend mode="normal" in2="BackgroundImageFix" result="effect1_dropShadow"/>
<feBlend mode="normal" in="SourceGraphic" in2="effect1_dropShadow" result="shape"/>
</filter>
<filter id="filter2_d" x="394.141" y="140.477" width="54.7891" height="54.2266" filterUnits="userSpaceOnUse" color-interpolation-filters="sRGB">
<feFlood flood-opacity="0" result="BackgroundImageFix"/>
<feColorMatrix in="SourceAlpha" type="matrix" values="0 0 0 0 0 0 0 0 0 0 0 0 0 0 0 0 0 0 127 0"/>
<feOffset dy="4"/>
<feGaussianBlur stdDeviation="2"/>
<feColorMatrix type="matrix" values="0 0 0 0 0 0 0 0 0 0 0 0 0 0 0 0 0 0 0.25 0"/>
<feBlend mode="normal" in2="BackgroundImageFix" result="effect1_dropShadow"/>
<feBlend mode="normal" in="SourceGraphic" in2="effect1_dropShadow" result="shape"/>
</filter>
<filter id="filter3_d" x="119.645" y="140.477" width="59.7812" height="54.2266" filterUnits="userSpaceOnUse" color-interpolation-filters="sRGB">
<feFlood flood-opacity="0" result="BackgroundImageFix"/>
<feColorMatrix in="SourceAlpha" type="matrix" values="0 0 0 0 0 0 0 0 0 0 0 0 0 0 0 0 0 0 127 0"/>
<feOffset dy="4"/>
<feGaussianBlur stdDeviation="2"/>
<feColorMatrix type="matrix" values="0 0 0 0 0 0 0 0 0 0 0 0 0 0 0 0 0 0 0.25 0"/>
<feBlend mode="normal" in2="BackgroundImageFix" result="effect1_dropShadow"/>
<feBlend mode="normal" in="SourceGraphic" in2="effect1_dropShadow" result="shape"/>
</filter>
<linearGradient id="paint0_linear" x1="298.041" y1="76.3738" x2="452.051" y2="566.082" gradientUnits="userSpaceOnUse">
<stop offset="0.00817745" stop-color="#1DFF7B"/>
<stop offset="0.779167" stop-color="#219653"/>
</linearGradient>
<linearGradient id="paint1_linear" x1="91.9113" y1="-74.8142" x2="211.433" y2="401.055" gradientUnits="userSpaceOnUse">
<stop offset="0.301571" stop-color="#2F80ED"/>
<stop offset="0.757271" stop-color="#56CCF2"/>
</linearGradient>
<linearGradient id="paint2_linear" x1="4.6576" y1="-102.672" x2="188.395" y2="451.984" gradientUnits="userSpaceOnUse">
<stop offset="0.202206" stop-color="#2F80ED"/>
<stop offset="0.701042" stop-color="#73D7F8"/>
<stop offset="1" stop-color="#6FCF97"/>
</linearGradient>
<linearGradient id="paint3_linear" x1="111.236" y1="-214.104" x2="138.285" y2="403.256" gradientUnits="userSpaceOnUse">
<stop offset="0.343961" stop-color="#F76BF1" stop-opacity="0.99"/>
<stop offset="0.659744" stop-color="#006BE8" stop-opacity="0.98"/>
</linearGradient>
</defs>
</svg>
